# xmcd
#
# Track frame offsets:
#	150
#	13437
#	24698
#	43343
#	57368
#	67031
#	77310
#	90545
#	109816
#	116079
#	132728
#	151575
#	160872
#	167137
#	175880
#
# Disc length: 2608
#
# Revision: 2
# Processed by: cddbd v1.5.1PL0 Copyright (c) Steve Scherf et al.
# Submitted via: EasyCDDAExtractor 5.0.7
# Normalized: r1:TRMNUM
#
DISCID=ca0a2e0f
DTITLE=Bobby Bare - Drunk and Crazy
DYEAR=1900
DGENRE=Country
TTITLE0=Drunk and Crazy
TTITLE1=Food Blues
TTITLE2=The Worlds Last Truck Drivin' Man
TTITLE3=I Can Almost See Houston From Here
TTITLE4=If That Ain't Love
TTITLE5=Rock and Roll Hotel
TTITLE6=Song of the South
TTITLE7=Apaloosa Rider
TTITLE8=Bathroom Tissue Paper Letter
TTITLE9=Willie Jones
TTITLE10=Gotta Get Rid of This Band
TTITLE11=Drinkin' and Drugin' and Watchin' T.V
TTITLE12=Your Credit Card Won't Get You Into Heaven
TTITLE13=I've Never Gone To Bed With an Ugly Woman
TTITLE14=Desperadoes Waiting For A Train
EXTD=
EXTT0=
EXTT1=
EXTT2=
EXTT3=
EXTT4=
EXTT5=
EXTT6=
EXTT7=
EXTT8=
EXTT9=
EXTT10=
EXTT11=
EXTT12=
EXTT13=
EXTT14=
PLAYORDER=
